# xmcd
#
# Track frame offsets:
#	150
#	18510
#	39342
#	52795
#	70901
#	96754
#	109966
#	135789
#
# Disc length: 2141 seconds
# Revision: 0
# Processed by: cddbd v1.5.2PL0 Copyright (c) Steve Scherf et al.
# Submitted via: dBpowerAMP V12.0
#
DISCID=5c085b08
DTITLE=Shakura S'Aida - Time... Disc 2
DYEAR=2012
DGENRE=Blues
TTITLE0=Ya Ya
TTITLE1=Geechee Woman
TTITLE2=Bad Girl
TTITLE3=Tell Me Baby
TTITLE4=That Ain't Right
TTITLE5=Tell Me More, More and Then Some
TTITLE6=Blues Dancing
TTITLE7=Halfway Blues
EXTD=
EXTT0=
EXTT1=
EXTT2=
EXTT3=
EXTT4=
EXTT5=
EXTT6=
EXTT7=
PLAYORDER=
